<svg width="278" height="52" viewBox="0 0 278 52" fill="none" xmlns="http://www.w3.org/2000/svg">
<rect width="278" height="52" rx="20" fill="#1877F2"/>
<rect width="34" height="34" transform="translate(16 18)" fill="#1877F2"/>
<path d="M95 26.5764C95 19.6306 89.4036 14 82.5 14C75.5964 14 70 19.6306 70 26.5764C70 32.8536 74.5711 38.0565 80.5469 39V30.2118H77.373V26.5764H80.5469V23.8057C80.5469 20.6537 82.413 18.9127 85.2683 18.9127C86.6359 18.9127 88.0664 19.1583 88.0664 19.1583V22.2533H86.4902C84.9374 22.2533 84.4531 23.2227 84.4531 24.2173V26.5764H87.9199L87.3657 30.2118H84.4531V39C90.4289 38.0565 95 32.8536 95 26.5764Z" fill="white"/>
<path d="M112.438 34V20.9091H120.556V22.6094H114.413V26.598H119.974V28.2919H114.413V34H112.438ZM122.456 34H120.36L125.07 20.9091H127.352L132.063 34H129.967L126.266 23.2869H126.164L122.456 34ZM122.808 28.8736H129.609V30.5355H122.808V28.8736ZM144.211 25.1662H142.217C142.14 24.7401 141.998 24.3651 141.789 24.0412C141.58 23.7173 141.324 23.4425 141.022 23.2166C140.719 22.9908 140.381 22.8203 140.006 22.7053C139.635 22.5902 139.241 22.5327 138.823 22.5327C138.069 22.5327 137.393 22.7223 136.797 23.1016C136.204 23.4808 135.736 24.0369 135.39 24.7699C135.05 25.5028 134.879 26.3977 134.879 27.4545C134.879 28.5199 135.05 29.419 135.39 30.152C135.736 30.8849 136.206 31.4389 136.803 31.8139C137.4 32.1889 138.071 32.3764 138.817 32.3764C139.23 32.3764 139.622 32.321 139.993 32.2102C140.368 32.0952 140.706 31.9268 141.009 31.7053C141.312 31.4837 141.567 31.2131 141.776 30.8935C141.989 30.5696 142.136 30.1989 142.217 29.7812L144.211 29.7876C144.105 30.4311 143.898 31.0234 143.591 31.5646C143.289 32.1016 142.899 32.5661 142.422 32.9581C141.949 33.3459 141.407 33.6463 140.798 33.8594C140.189 34.0724 139.524 34.179 138.804 34.179C137.67 34.179 136.66 33.9105 135.774 33.3736C134.888 32.8324 134.189 32.0589 133.677 31.0533C133.17 30.0476 132.917 28.848 132.917 27.4545C132.917 26.0568 133.172 24.8572 133.684 23.8558C134.195 22.8501 134.894 22.0788 135.78 21.5419C136.667 21.0007 137.675 20.7301 138.804 20.7301C139.498 20.7301 140.146 20.8303 140.747 21.0305C141.352 21.2266 141.895 21.5163 142.377 21.8999C142.858 22.2791 143.257 22.7436 143.572 23.2933C143.888 23.8388 144.101 24.4631 144.211 25.1662ZM146.575 34V20.9091H154.782V22.6094H148.55V26.598H154.354V28.2919H148.55V32.2997H154.859V34H146.575ZM157.421 34V20.9091H162.215C163.144 20.9091 163.913 21.0625 164.522 21.3693C165.132 21.6719 165.588 22.0831 165.89 22.603C166.193 23.1186 166.344 23.7003 166.344 24.348C166.344 24.8935 166.244 25.3537 166.044 25.7287C165.843 26.0994 165.575 26.3977 165.238 26.6236C164.906 26.8452 164.539 27.0071 164.139 27.1094V27.2372C164.573 27.2585 164.997 27.3991 165.411 27.6591C165.828 27.9148 166.173 28.2791 166.446 28.7521C166.719 29.2251 166.855 29.8004 166.855 30.478C166.855 31.147 166.698 31.7479 166.382 32.2805C166.071 32.8089 165.59 33.2287 164.938 33.5398C164.286 33.8466 163.453 34 162.438 34H157.421ZM159.396 32.3061H162.247C163.193 32.3061 163.87 32.1229 164.279 31.7564C164.688 31.3899 164.893 30.9318 164.893 30.3821C164.893 29.9687 164.789 29.5895 164.58 29.2443C164.371 28.8991 164.073 28.6243 163.685 28.4197C163.301 28.2152 162.845 28.1129 162.317 28.1129H159.396V32.3061ZM159.396 26.5724H162.042C162.485 26.5724 162.884 26.4872 163.237 26.3168C163.595 26.1463 163.879 25.9077 164.088 25.6009C164.301 25.2898 164.407 24.9233 164.407 24.5014C164.407 23.9602 164.218 23.5064 163.838 23.1399C163.459 22.7734 162.877 22.5902 162.093 22.5902H159.396V26.5724ZM180.569 27.4545C180.569 28.8523 180.314 30.054 179.802 31.0597C179.291 32.0611 178.59 32.8324 177.699 33.3736C176.813 33.9105 175.805 34.179 174.676 34.179C173.542 34.179 172.53 33.9105 171.64 33.3736C170.753 32.8324 170.055 32.0589 169.543 31.0533C169.032 30.0476 168.776 28.848 168.776 27.4545C168.776 26.0568 169.032 24.8572 169.543 23.8558C170.055 22.8501 170.753 22.0788 171.64 21.5419C172.53 21.0007 173.542 20.7301 174.676 20.7301C175.805 20.7301 176.813 21.0007 177.699 21.5419C178.59 22.0788 179.291 22.8501 179.802 23.8558C180.314 24.8572 180.569 26.0568 180.569 27.4545ZM178.613 27.4545C178.613 26.3892 178.441 25.4922 178.096 24.7635C177.755 24.0305 177.286 23.4766 176.689 23.1016C176.097 22.7223 175.426 22.5327 174.676 22.5327C173.922 22.5327 173.248 22.7223 172.656 23.1016C172.064 23.4766 171.595 24.0305 171.25 24.7635C170.909 25.4922 170.738 26.3892 170.738 27.4545C170.738 28.5199 170.909 29.419 171.25 30.152C171.595 30.8807 172.064 31.4347 172.656 31.8139C173.248 32.1889 173.922 32.3764 174.676 32.3764C175.426 32.3764 176.097 32.1889 176.689 31.8139C177.286 31.4347 177.755 30.8807 178.096 30.152C178.441 29.419 178.613 28.5199 178.613 27.4545ZM194.403 27.4545C194.403 28.8523 194.148 30.054 193.636 31.0597C193.125 32.0611 192.424 32.8324 191.533 33.3736C190.647 33.9105 189.639 34.179 188.51 34.179C187.376 34.179 186.364 33.9105 185.474 33.3736C184.587 32.8324 183.888 32.0589 183.377 31.0533C182.866 30.0476 182.61 28.848 182.61 27.4545C182.61 26.0568 182.866 24.8572 183.377 23.8558C183.888 22.8501 184.587 22.0788 185.474 21.5419C186.364 21.0007 187.376 20.7301 188.51 20.7301C189.639 20.7301 190.647 21.0007 191.533 21.5419C192.424 22.0788 193.125 22.8501 193.636 23.8558C194.148 24.8572 194.403 26.0568 194.403 27.4545ZM192.447 27.4545C192.447 26.3892 192.275 25.4922 191.93 24.7635C191.589 24.0305 191.12 23.4766 190.523 23.1016C189.931 22.7223 189.26 22.5327 188.51 22.5327C187.756 22.5327 187.082 22.7223 186.49 23.1016C185.898 23.4766 185.429 24.0305 185.084 24.7635C184.743 25.4922 184.572 26.3892 184.572 27.4545C184.572 28.5199 184.743 29.419 185.084 30.152C185.429 30.8807 185.898 31.4347 186.49 31.8139C187.082 32.1889 187.756 32.3764 188.51 32.3764C189.26 32.3764 189.931 32.1889 190.523 31.8139C191.12 31.4347 191.589 30.8807 191.93 30.152C192.275 29.419 192.447 28.5199 192.447 27.4545ZM196.866 34V20.9091H198.841V27.1605H199.001L204.492 20.9091H206.978L201.698 26.8026L206.997 34H204.619L200.388 28.1513L198.841 29.9283V34H196.866Z" fill="white"/>
</svg>
