<svg width="284" height="60" viewBox="0 0 284 60" fill="none" xmlns="http://www.w3.org/2000/svg">
<g filter="url(#filter0_dd_70_579)">
<rect x="3" y="3" width="278" height="52" rx="20" fill="white"/>
<rect width="33" height="33" transform="translate(68 12)" fill="white"/>
<path fill-rule="evenodd" clip-rule="evenodd" d="M94.6 29.2271C94.6 28.518 94.5364 27.8362 94.4182 27.1816H85V31.0498H90.3818C90.15 32.2998 89.4455 33.3589 88.3864 34.068V36.5771H91.6182C93.5091 34.8362 94.6 32.2725 94.6 29.2271Z" fill="#4285F4"/>
<path fill-rule="evenodd" clip-rule="evenodd" d="M84.9998 38.9999C87.6998 38.9999 89.9635 38.1044 91.618 36.5772L88.3862 34.0681C87.4907 34.6681 86.3453 35.0226 84.9998 35.0226C82.3953 35.0226 80.1907 33.2635 79.4044 30.8999H76.0635V33.4908C77.7089 36.759 81.0907 38.9999 84.9998 38.9999Z" fill="#34A853"/>
<path fill-rule="evenodd" clip-rule="evenodd" d="M79.4045 30.8997C79.2045 30.2997 79.0909 29.6588 79.0909 28.9997C79.0909 28.3406 79.2045 27.6997 79.4045 27.0997V24.5088H76.0636C75.3864 25.8588 75 27.3861 75 28.9997C75 30.6133 75.3864 32.1406 76.0636 33.4906L79.4045 30.8997Z" fill="#FBBC05"/>
<path fill-rule="evenodd" clip-rule="evenodd" d="M84.9998 22.9773C86.468 22.9773 87.7862 23.4818 88.8226 24.4727L91.6908 21.6045C89.9589 19.9909 87.6953 19 84.9998 19C81.0907 19 77.7089 21.2409 76.0635 24.5091L79.4044 27.1C80.1907 24.7364 82.3953 22.9773 84.9998 22.9773Z" fill="#EA4335"/>
<path d="M124.298 26.5447C124.174 26.157 124.008 25.8097 123.799 25.5028C123.594 25.1918 123.349 24.9276 123.064 24.7102C122.778 24.4886 122.452 24.3203 122.086 24.2053C121.724 24.0902 121.325 24.0327 120.891 24.0327C120.153 24.0327 119.489 24.2223 118.896 24.6016C118.304 24.9808 117.835 25.5369 117.49 26.2699C117.149 26.9986 116.979 27.8913 116.979 28.9482C116.979 30.0092 117.151 30.9062 117.496 31.6392C117.842 32.3722 118.315 32.9283 118.915 33.3075C119.516 33.6868 120.2 33.8764 120.967 33.8764C121.679 33.8764 122.299 33.7315 122.827 33.4418C123.36 33.152 123.771 32.7429 124.061 32.2145C124.355 31.6818 124.502 31.0554 124.502 30.3352L125.013 30.4311H121.268V28.8011H126.413V30.2905C126.413 31.3899 126.179 32.3445 125.71 33.1541C125.246 33.9595 124.602 34.5817 123.78 35.0206C122.962 35.4595 122.024 35.679 120.967 35.679C119.783 35.679 118.743 35.4062 117.848 34.8608C116.957 34.3153 116.263 33.5419 115.764 32.5405C115.266 31.5348 115.016 30.3416 115.016 28.9609C115.016 27.9169 115.161 26.9794 115.451 26.1484C115.741 25.3175 116.148 24.6122 116.672 24.0327C117.2 23.4489 117.82 23.0036 118.532 22.6967C119.248 22.3857 120.03 22.2301 120.878 22.2301C121.585 22.2301 122.244 22.3345 122.853 22.5433C123.467 22.7521 124.012 23.0483 124.489 23.4318C124.971 23.8153 125.369 24.2713 125.685 24.7997C126 25.3239 126.213 25.9055 126.324 26.5447H124.298ZM140.292 28.9545C140.292 30.3523 140.036 31.554 139.525 32.5597C139.014 33.5611 138.313 34.3324 137.422 34.8736C136.536 35.4105 135.528 35.679 134.399 35.679C133.265 35.679 132.253 35.4105 131.362 34.8736C130.476 34.3324 129.777 33.5589 129.266 32.5533C128.754 31.5476 128.499 30.348 128.499 28.9545C128.499 27.5568 128.754 26.3572 129.266 25.3558C129.777 24.3501 130.476 23.5788 131.362 23.0419C132.253 22.5007 133.265 22.2301 134.399 22.2301C135.528 22.2301 136.536 22.5007 137.422 23.0419C138.313 23.5788 139.014 24.3501 139.525 25.3558C140.036 26.3572 140.292 27.5568 140.292 28.9545ZM138.336 28.9545C138.336 27.8892 138.164 26.9922 137.818 26.2635C137.477 25.5305 137.009 24.9766 136.412 24.6016C135.82 24.2223 135.149 24.0327 134.399 24.0327C133.644 24.0327 132.971 24.2223 132.379 24.6016C131.786 24.9766 131.318 25.5305 130.972 26.2635C130.632 26.9922 130.461 27.8892 130.461 28.9545C130.461 30.0199 130.632 30.919 130.972 31.652C131.318 32.3807 131.786 32.9347 132.379 33.3139C132.971 33.6889 133.644 33.8764 134.399 33.8764C135.149 33.8764 135.82 33.6889 136.412 33.3139C137.009 32.9347 137.477 32.3807 137.818 31.652C138.164 30.919 138.336 30.0199 138.336 28.9545ZM154.126 28.9545C154.126 30.3523 153.87 31.554 153.359 32.5597C152.848 33.5611 152.147 34.3324 151.256 34.8736C150.37 35.4105 149.362 35.679 148.233 35.679C147.099 35.679 146.087 35.4105 145.196 34.8736C144.31 34.3324 143.611 33.5589 143.1 32.5533C142.588 31.5476 142.333 30.348 142.333 28.9545C142.333 27.5568 142.588 26.3572 143.1 25.3558C143.611 24.3501 144.31 23.5788 145.196 23.0419C146.087 22.5007 147.099 22.2301 148.233 22.2301C149.362 22.2301 150.37 22.5007 151.256 23.0419C152.147 23.5788 152.848 24.3501 153.359 25.3558C153.87 26.3572 154.126 27.5568 154.126 28.9545ZM152.17 28.9545C152.17 27.8892 151.998 26.9922 151.652 26.2635C151.311 25.5305 150.843 24.9766 150.246 24.6016C149.654 24.2223 148.983 24.0327 148.233 24.0327C147.478 24.0327 146.805 24.2223 146.213 24.6016C145.62 24.9766 145.152 25.5305 144.806 26.2635C144.466 26.9922 144.295 27.8892 144.295 28.9545C144.295 30.0199 144.466 30.919 144.806 31.652C145.152 32.3807 145.62 32.9347 146.213 33.3139C146.805 33.6889 147.478 33.8764 148.233 33.8764C148.983 33.8764 149.654 33.6889 150.246 33.3139C150.843 32.9347 151.311 32.3807 151.652 31.652C151.998 30.919 152.17 30.0199 152.17 28.9545ZM165.448 26.5447C165.324 26.157 165.158 25.8097 164.949 25.5028C164.745 25.1918 164.5 24.9276 164.214 24.7102C163.929 24.4886 163.603 24.3203 163.236 24.2053C162.874 24.0902 162.476 24.0327 162.041 24.0327C161.304 24.0327 160.639 24.2223 160.047 24.6016C159.454 24.9808 158.986 25.5369 158.64 26.2699C158.3 26.9986 158.129 27.8913 158.129 28.9482C158.129 30.0092 158.302 30.9062 158.647 31.6392C158.992 32.3722 159.465 32.9283 160.066 33.3075C160.667 33.6868 161.351 33.8764 162.118 33.8764C162.829 33.8764 163.449 33.7315 163.978 33.4418C164.51 33.152 164.922 32.7429 165.211 32.2145C165.506 31.6818 165.653 31.0554 165.653 30.3352L166.164 30.4311H162.418V28.8011H167.564V30.2905C167.564 31.3899 167.329 32.3445 166.861 33.1541C166.396 33.9595 165.753 34.5817 164.93 35.0206C164.112 35.4595 163.175 35.679 162.118 35.679C160.933 35.679 159.893 35.4062 158.998 34.8608C158.108 34.3153 157.413 33.5419 156.915 32.5405C156.416 31.5348 156.167 30.3416 156.167 28.9609C156.167 27.9169 156.312 26.9794 156.601 26.1484C156.891 25.3175 157.298 24.6122 157.822 24.0327C158.351 23.4489 158.971 23.0036 159.682 22.6967C160.398 22.3857 161.18 22.2301 162.028 22.2301C162.736 22.2301 163.394 22.3345 164.003 22.5433C164.617 22.7521 165.162 23.0483 165.64 23.4318C166.121 23.8153 166.52 24.2713 166.835 24.7997C167.15 25.3239 167.363 25.9055 167.474 26.5447H165.448ZM170.071 35.5V22.4091H172.046V33.7997H177.978V35.5H170.071ZM180.231 35.5V22.4091H188.439V24.1094H182.206V28.098H188.01V29.7919H182.206V33.7997H188.515V35.5H180.231Z" fill="black" fill-opacity="0.54"/>
</g>
<defs>
<filter id="filter0_dd_70_579" x="0" y="0" width="284" height="60" filterUnits="userSpaceOnUse" color-interpolation-filters="sRGB">
<feFlood flood-opacity="0" result="BackgroundImageFix"/>
<feColorMatrix in="SourceAlpha" type="matrix" values="0 0 0 0 0 0 0 0 0 0 0 0 0 0 0 0 0 0 127 0" result="hardAlpha"/>
<feOffset dy="2"/>
<feGaussianBlur stdDeviation="1.5"/>
<feColorMatrix type="matrix" values="0 0 0 0 0 0 0 0 0 0 0 0 0 0 0 0 0 0 0.168 0"/>
<feBlend mode="normal" in2="BackgroundImageFix" result="effect1_dropShadow_70_579"/>
<feColorMatrix in="SourceAlpha" type="matrix" values="0 0 0 0 0 0 0 0 0 0 0 0 0 0 0 0 0 0 127 0" result="hardAlpha"/>
<feOffset/>
<feGaussianBlur stdDeviation="1.5"/>
<feColorMatrix type="matrix" values="0 0 0 0 0 0 0 0 0 0 0 0 0 0 0 0 0 0 0.084 0"/>
<feBlend mode="normal" in2="effect1_dropShadow_70_579" result="effect2_dropShadow_70_579"/>
<feBlend mode="normal" in="SourceGraphic" in2="effect2_dropShadow_70_579" result="shape"/>
</filter>
</defs>
</svg>
