<svg width="370" height="850" viewBox="0 0 370 850" fill="none" xmlns="http://www.w3.org/2000/svg">
<g clip-path="url(#clip0_236_1766)">
<rect width="370" height="850" fill="#F8FCFF"/>
<path d="M0 0H375V867C375 880.255 364.255 891 351 891H24C10.7452 891 0 880.255 0 867V0Z" fill="#3A20BB"/>
<circle cx="439.5" cy="228.5" r="196.5" fill="url(#paint0_linear_236_1766)"/>
<path d="M399 615C399 662.772 173.258 823 123 823C72.7421 823 32 784.273 32 736.5C32 688.727 145.742 336.5 196 336.5C246.258 336.5 399 567.227 399 615Z" fill="url(#paint1_linear_236_1766)"/>
<path d="M16 500.677C16 485.362 16 477.704 20.3705 472.23C24.741 466.756 32.2085 465.061 47.1437 461.67L305.144 403.093C327.686 397.974 338.957 395.415 346.479 401.42C354 407.425 354 418.984 354 442.1V468.741V722C354 740.856 354 750.284 348.142 756.142C342.284 762 332.856 762 314 762H56C37.1438 762 27.7157 762 21.8579 756.142C16 750.284 16 740.856 16 722V500.677Z" fill="#4D31D5" fill-opacity="0.38"/>
<g clip-path="url(#clip1_236_1766)">
<path d="M179.758 238.106L83.1428 311.853C81.3341 313.229 78.6178 313.266 77.0841 311.919L24.061 265.544C22.5273 264.197 22.7352 261.986 24.5439 260.61L121.159 186.863C122.967 185.487 125.684 185.45 127.218 186.797L180.241 233.172C181.798 234.513 181.566 236.73 179.758 238.106Z" fill="#FFC107" fill-opacity="0.17"/>
<path d="M33.0705 273.408L136.254 194.653L158.03 213.698L54.8468 292.452L33.0705 273.408Z" fill="#FF8F00" fill-opacity="0.36"/>
<path d="M208.186 332.407L34.0877 369.157C29.3985 370.147 24.9556 367.923 24.1679 364.192L3.1307 264.533C2.34306 260.802 5.50808 256.972 10.1973 255.982L184.271 219.237C188.96 218.247 193.403 220.471 194.191 224.202L215.232 323.88C216.044 327.606 212.875 331.417 208.186 332.407Z" fill="#F44336" fill-opacity="0.34"/>
<path d="M215.256 323.875L206.13 280.642L137.37 301.897L187.443 336.785L208.162 332.412C212.875 331.417 216.044 327.606 215.256 323.875Z" fill="#E53935" fill-opacity="0.36"/>
<path d="M157.493 304.649L210.94 293.367C213.285 292.872 214.858 290.969 214.464 289.103L207.544 256.322C207.15 254.456 204.942 253.351 202.598 253.846L149.151 265.128C135.442 268.022 126.186 279.223 128.488 290.131C130.791 301.039 143.785 307.543 157.493 304.649Z" fill="#FFEBEE" fill-opacity="0.4"/>
<path d="M141.192 287.449C141.664 289.686 143.234 291.595 145.555 292.757C147.877 293.919 150.76 294.239 153.571 293.645C156.382 293.052 158.89 291.594 160.544 289.593C162.198 287.592 162.862 285.211 162.389 282.975C161.917 280.738 160.348 278.829 158.026 277.667C155.705 276.505 152.822 276.185 150.011 276.779C147.2 277.372 144.692 278.829 143.038 280.831C141.384 282.832 140.72 285.213 141.192 287.449Z" fill="#F44336" fill-opacity="0.34"/>
<path d="M10.1973 255.982C5.50808 256.972 2.34306 260.802 3.1307 264.533L24.172 364.211C24.9596 367.942 29.4025 370.166 34.0917 369.176L60.9828 363.5L37.0883 250.306L10.1973 255.982Z" fill="#D32F2F" fill-opacity="0.02"/>
</g>
</g>
<defs>
<linearGradient id="paint0_linear_236_1766" x1="439.5" y1="32" x2="439.5" y2="425" gradientUnits="userSpaceOnUse">
<stop stop-color="#3A20BB"/>
<stop offset="1" stop-color="#1A0E55" stop-opacity="0.05"/>
</linearGradient>
<linearGradient id="paint1_linear_236_1766" x1="128" y1="85.5" x2="123" y2="858" gradientUnits="userSpaceOnUse">
<stop offset="0.206731" stop-color="#2220BB" stop-opacity="0"/>
<stop offset="1" stop-color="#1A0E55"/>
</linearGradient>
<clipPath id="clip0_236_1766">
<rect width="370" height="850" fill="white"/>
</clipPath>
<clipPath id="clip1_236_1766">
<rect width="250.385" height="199.235" fill="white" transform="translate(-35.3982 199.807) rotate(-11.9197)"/>
</clipPath>
</defs>
</svg>
